<svg xmlns="http://www.w3.org/2000/svg" width="1200" height="630" viewBox="0 0 1200 630" role="img" aria-label="Code Radar placeholder hero">
  <defs>
    <linearGradient id="bg" x1="0%" y1="0%" x2="100%" y2="100%">
      <stop offset="0%" stop-color="#0b1220"/>
      <stop offset="55%" stop-color="#111827"/>
      <stop offset="100%" stop-color="#0f172a"/>
    </linearGradient>
    <linearGradient id="glow" x1="0%" y1="0%" x2="100%" y2="0%">
      <stop offset="0%" stop-color="#22d3ee" stop-opacity="0"/>
      <stop offset="50%" stop-color="#38bdf8" stop-opacity="0.9"/>
      <stop offset="100%" stop-color="#a78bfa" stop-opacity="0"/>
    </linearGradient>
    <radialGradient id="radarGlow" cx="50%" cy="50%" r="50%">
      <stop offset="0%" stop-color="#22d3ee" stop-opacity="0.35"/>
      <stop offset="70%" stop-color="#38bdf8" stop-opacity="0.08"/>
      <stop offset="100%" stop-color="#38bdf8" stop-opacity="0"/>
    </radialGradient>
    <filter id="soft" x="-20%" y="-20%" width="140%" height="140%">
      <feGaussianBlur stdDeviation="8"/>
    </filter>
  </defs>

  <!-- Background -->
  <rect width="1200" height="630" fill="url(#bg)"/>

  <!-- Subtle grid -->
  <g stroke="#1f2937" stroke-width="1" opacity="0.55">
    <path d="M0 90 H1200 M0 180 H1200 M0 270 H1200 M0 360 H1200 M0 450 H1200 M0 540 H1200"/>
    <path d="M120 0 V630 M240 0 V630 M360 0 V630 M480 0 V630 M600 0 V630 M720 0 V630 M840 0 V630 M960 0 V630 M1080 0 V630"/>
  </g>

  <!-- Accent bar -->
  <rect x="0" y="0" width="1200" height="4" fill="url(#glow)"/>

  <!-- Radar graphic -->
  <g transform="translate(900 315)">
    <circle r="170" fill="url(#radarGlow)"/>
    <circle r="150" fill="none" stroke="#1e3a5f" stroke-width="2"/>
    <circle r="110" fill="none" stroke="#1e3a5f" stroke-width="1.5"/>
    <circle r="70" fill="none" stroke="#1e3a5f" stroke-width="1.5"/>
    <circle r="30" fill="none" stroke="#334155" stroke-width="1.5"/>
    <line x1="-150" y1="0" x2="150" y2="0" stroke="#1e3a5f" stroke-width="1"/>
    <line x1="0" y1="-150" x2="0" y2="150" stroke="#1e3a5f" stroke-width="1"/>

    <!-- Sweep wedge -->
    <path d="M0 0 L130 -40 A150 150 0 0 1 40 145 Z" fill="#22d3ee" opacity="0.12"/>
    <line x1="0" y1="0" x2="130" y2="-40" stroke="#22d3ee" stroke-width="3" stroke-linecap="round"/>
    <circle r="6" fill="#22d3ee"/>

    <!-- Blips -->
    <circle cx="55" cy="-70" r="6" fill="#a78bfa">
      <title>Package signal</title>
    </circle>
    <circle cx="55" cy="-70" r="14" fill="none" stroke="#a78bfa" stroke-opacity="0.45" stroke-width="2"/>
    <circle cx="-80" cy="35" r="5" fill="#38bdf8"/>
    <circle cx="40" cy="95" r="4" fill="#34d399"/>
  </g>

  <!-- Copy -->
  <g fill="#e2e8f0" font-family="ui-sans-serif, system-ui, -apple-system, Segoe UI, sans-serif">
    <text x="72" y="220" font-size="22" fill="#67e8f9" letter-spacing="4" font-weight="600">CLI · PACKAGE NEWS</text>
    <text x="72" y="300" font-size="72" font-weight="700" fill="#f8fafc">Code Radar</text>
    <text x="72" y="360" font-size="28" fill="#94a3b8">Major framework &amp; library news for your stack</text>
    <text x="72" y="420" font-size="20" fill="#64748b">Scan package.json · Web search · Source links</text>
  </g>

  <!-- Placeholder tag -->
  <g transform="translate(72 500)">
    <rect width="168" height="36" rx="18" fill="#0ea5e9" fill-opacity="0.15" stroke="#38bdf8" stroke-opacity="0.5"/>
    <text x="84" y="24" text-anchor="middle" font-family="ui-sans-serif, system-ui, sans-serif" font-size="14" fill="#7dd3fc" font-weight="600">PLACEHOLDER HERO</text>
  </g>
</svg>
